<?xml version="1.0" standalone="no"?><svg xmlns:xlink="http://www.w3.org/1999/xlink" xmlns="http://www.w3.org/2000/svg" viewBox="0 0 1000 100.00000000000001" preserveAspectRatio="xMaxYMax slice"><g transform="scale(1.098901098901099)"><rect x="0" y="0" width="910" height="91" fill="#000000"/><rect x="0" y="0" width="91" height="91" fill="#000000"/><rect x="0" y="0" width="45.5" height="45.5" fill="#993030"/><polygon points="45.5,0 45.5,45.5 0,45.5" fill="#081828"/><rect x="45.5" y="0" width="45.5" height="45.5" fill="#0d2742"/><polygon points="45.5,0 91,0 45.5,45.5" fill="#0b2239"/><rect x="0" y="45.5" width="45.5" height="45.5" fill="#071421"/><polygon points="0,45.5 45.5,45.5 45.5,91" fill="#852a2a"/><rect x="45.5" y="45.5" width="45.5" height="45.5" fill="#040d16"/><polygon points="45.5,45.5 91,91 45.5,91" fill="#c53e3e"/><rect x="91" y="0" width="91" height="91" fill="#7f2828"/><polygon points="91,0 182,0 91,91" fill="#08192a"/><rect x="182" y="0" width="91" height="91" fill="#000000"/><rect x="182" y="0" width="45.5" height="45.5" fill="#0a1f35"/><path d="M 182 45.5 A 45.5 45.5 0 0 1 227.5 0 L 227.5 11.375 A 34.125 34.125 0 0 0 193.375 45.5" fill="#431515"/><rect x="227.5" y="0" width="45.5" height="45.5" fill="#081727"/><path d="M 227.5 0 A 45.5 45.5 0 0 1 273 45.5 L 261.625 45.5 A 34.125 34.125 0 0 0 227.5 11.375" fill="#06111c"/><rect x="182" y="45.5" width="45.5" height="45.5" fill="#250c0c"/><path d="M 182 45.5 A 45.5 45.5 0 0 0 227.5 91 L 227.5 79.625 A 34.125 34.125 0 0 1 193.375 45.5" fill="#b73939"/><rect x="227.5" y="45.5" width="45.5" height="45.5" fill="#000101"/><path d="M 227.5 91 A 45.5 45.5 0 0 0 273 45.5 L 261.625 45.5 A 34.125 34.125 0 0 1 227.5 79.625" fill="#f44c4c"/><rect x="273" y="0" width="91" height="91" fill="#0a1d31"/><polygon points="273,0 364,91 273,91" fill="#d54343"/><rect x="364" y="0" width="91" height="91" fill="#000000"/><rect x="364" y="0" width="45.5" height="45.5" fill="#081828"/><path d="M 364 0 A 45.5 45.5 0 0 0 409.5 45.5 L 409.5 0" fill="#672020"/><rect x="409.5" y="0" width="45.5" height="45.5" fill="#010000"/><path d="M 409.5 45.5 A 45.5 45.5 0 0 0 455 0 L 409.5 0" fill="#0b2036"/><rect x="364" y="45.5" width="45.5" height="45.5" fill="#0d2844"/><path d="M 364 91 A 45.5 45.5 0 0 1  409.5 45.5 L 409.5 91" fill="#942f2f"/><rect x="409.5" y="45.5" width="45.5" height="45.5" fill="#361111"/><path d="M 409.5 45.5 A 45.5 45.5 0 0 1 455 91 L 409.5 91" fill="#0b2037"/><rect x="455" y="0" width="91" height="91" fill="#000000"/><rect x="455" y="0" width="45.5" height="45.5" fill="#8b2b2b"/><polygon points="500.5,0 500.5,45.5 455,45.5" fill="#000102"/><rect x="500.5" y="0" width="45.5" height="45.5" fill="#040d16"/><polygon points="500.5,0 546,45.5 500.5,45.5" fill="#040c15"/><rect x="455" y="45.5" width="45.5" height="45.5" fill="#010406"/><polygon points="455,45.5 500.5,45.5 455,91" fill="#040b13"/><rect x="500.5" y="45.5" width="45.5" height="45.5" fill="#f44d4d"/><polygon points="500.5,45.5 546,45.5 546,91" fill="#ef4b4b"/><rect x="546" y="0" width="91" height="91" fill="#071524"/><path d="M 546 0 A 91 91 0 0 0 637 91 L 637 0" fill="#040d16"/><rect x="637" y="0" width="91" height="91" fill="#030101"/><path d="M 637 0 A 91 91 0 0 1 728 91 L 637 91" fill="#0b223a"/><rect x="728" y="0" width="91" height="91" fill="#000000"/><rect x="728" y="0" width="45.5" height="45.5" fill="#8e2d2d"/><polygon points="773.5,0 773.5,45.5 728,45.5" fill="#993030"/><rect x="773.5" y="0" width="45.5" height="45.5" fill="#0a1e33"/><polygon points="773.5,0 819,45.5 773.5,45.5" fill="#061320"/><rect x="728" y="45.5" width="45.5" height="45.5" fill="#eb4a4a"/><polygon points="728,45.5 773.5,45.5 728,91" fill="#02060a"/><rect x="773.5" y="45.5" width="45.5" height="45.5" fill="#300f0f"/><polygon points="773.5,45.5 819,45.5 819,91" fill="#000101"/><rect x="819" y="0" width="91" height="91" fill="#0d2640"/><path d="M 819 91 A 91 91 0 0 1  910 0 L 819 91 A 91 91 0 0 0 910 0" fill="#7f2828"/></g></svg>